<svg version="1.1" viewBox="0.0 0.0 960.0 720.0" fill="none" stroke="none" stroke-linecap="square" stroke-miterlimit="10" xmlns:xlink="http://www.w3.org/1999/xlink" xmlns="http://www.w3.org/2000/svg"><clipPath id="p.0"><path d="m0 0l960.0 0l0 720.0l-960.0 0l0 -720.0z" clip-rule="nonzero"/></clipPath><g clip-path="url(#p.0)"><path fill="#000000" fill-opacity="0.0" d="m0 0l960.0 0l0 720.0l-960.0 0z" fill-rule="evenodd"/><path fill="#f6b26b" d="m343.67508 195.84251l272.6498 0c7.2564087 0 14.215515 2.8825836 19.346558 8.013596c5.1310425 5.131027 8.013611 12.090179 8.013611 19.346542l0 136.79735c0 0.0014953613 -0.0012207031 0.0027160645 -0.002746582 0.0027160645l-327.36734 -0.0027160645l0 0c-0.0015258789 0 -0.002746582 -0.0012207031 -0.002746582 -0.0027160645l0.002746582 -136.79463l0 0c0 -15.11058 12.249542 -27.360138 27.360107 -27.360138z" fill-rule="evenodd"/><path fill="#6aa84f" d="m343.67508 524.1575l272.6498 0c7.2564087 0 14.215515 -2.8825684 19.346558 -8.013611c5.1310425 -5.1309814 8.013611 -12.090149 8.013611 -19.346497l0 -136.79736c0 -0.0014953613 -0.0012207031 -0.0027160645 -0.002746582 -0.0027160645l-327.36734 0.0027160645l0 0c-0.0015258789 0 -0.002746582 0.0012207031 -0.002746582 0.0027160645l0.002746582 136.79465l0 0c0 15.110565 12.249542 27.360107 27.360107 27.360107z" fill-rule="evenodd"/><path fill="#000000" d="m386.6143 248.4252l21.018158 0l0 0c1.3936157 0 2.730194 0.5536194 3.7156372 1.5390625c0.9854431 0.9854431 1.5390625 2.321991 1.5390625 3.7156372l0 53.737427c0 1.5258789E-4 -1.2207031E-4 2.4414062E-4 -2.746582E-4 2.4414062E-4l-31.527283 -2.4414062E-4l0 0c-1.5258789E-4 0 -2.746582E-4 -1.2207031E-4 -2.746582E-4 -2.746582E-4l2.746582E-4 -53.737152l0 0c0 -2.9020996 2.3526 -5.2546997 5.2546997 -5.2546997z" fill-rule="evenodd"/><path fill="#000000" d="m560.2416 248.4252l21.018188 0l0 0c1.3936157 0 2.7301636 0.5536194 3.7155762 1.5390625c0.98547363 0.9854431 1.5391235 2.321991 1.5391235 3.7156372l0 53.737427c0 1.5258789E-4 -1.2207031E-4 2.4414062E-4 -3.0517578E-4 2.4414062E-4l-31.527283 -2.4414062E-4l0 0c-1.2207031E-4 0 -2.4414062E-4 -1.2207031E-4 -2.4414062E-4 -2.746582E-4l2.4414062E-4 -53.737152l0 0c0 -2.9020996 2.3526 -5.2546997 5.2546997 -5.2546997z" fill-rule="evenodd"/><path fill="#ffd966" d="m513.5591 360.0l-13.542511 4.8160095l0 -9.632019zm-9.8315735 -23.73059l-6.1687927 12.982666l-6.810791 -6.810791zm-23.727509 -9.828461l4.8160095 13.54248l-9.632019 0zm-23.73059 9.828461l12.982666 6.171875l-6.810791 6.810791zm-9.828461 23.73059l13.54248 -4.8160095l0 9.632019zm9.828461 23.727509l6.171875 -12.979584l6.810791 6.810791zm23.73059 9.831543l-4.8160095 -13.54248l9.632019 0zm23.727509 -9.831543l-12.979584 -6.1687927l6.810791 -6.810791zm-40.50705 -23.727509l0 0c0 -9.26709 7.512451 -16.779541 16.779541 -16.779541c9.26709 0 16.779541 7.512451 16.779541 16.779541c0 9.26709 -7.512451 16.779541 -16.779541 16.779541c-9.26709 0 -16.779541 -7.512451 -16.779541 -16.779541z" fill-rule="evenodd"/><path fill="#000000" d="m403.35434 408.51968l0 0c0 42.33023 34.31543 76.64566 76.64566 76.64566c42.33026 0 76.64569 -34.31543 76.64569 -76.64566l-38.322876 0c0 21.16513 -17.157684 38.322845 -38.322815 38.322845c-21.16513 0 -38.322845 -17.157715 -38.322845 -38.322845z" fill-rule="evenodd"/></g></svg>