<svg version="1.1" xmlns="http://www.w3.org/2000/svg" xmlns:xlink="http://www.w3.org/1999/xlink" width="482.52775" height="363.41218" viewBox="0,0,482.52775,363.41218"><defs><clipPath id="clip-1"><path d="M-2.76276,-2.09086h482.52775v363.41218h-482.52774z" fill="none" fill-rule="nonzero"/></clipPath></defs><g transform="translate(2.76277,2.09086)"><g clip-path="url(#clip-1)" data-paper-data="{&quot;isPaintingLayer&quot;:true}" stroke="none" stroke-width="1" stroke-linecap="square" stroke-linejoin="miter" stroke-miterlimit="10" stroke-dasharray="" stroke-dashoffset="0" style="mix-blend-mode: normal"><path d="M-2.76276,-2.09086h482.52775v363.41218h-482.52774z" fill-opacity="0" fill="#000000" fill-rule="evenodd"/><path d="M-2.75748,57.82462v0c0,-33.52354 27.0628,-60.69973 60.44646,-60.69973h361.63479c16.0314,0 31.4062,6.39513 42.74213,17.77854c11.33591,11.38341 17.70434,26.82263 17.70434,42.9212v242.79167c0,33.52356 -27.06279,60.69975 -60.44647,60.69975h-361.63479v0c-33.38366,0 -60.44646,-27.17618 -60.44646,-60.69975z" fill="#0000ff" fill-rule="evenodd"/><path d="M91.08846,58.64344l29.78596,-29.91076l29.78595,29.91077l-29.78595,29.91076z" fill="#ff1e26" fill-rule="evenodd"/><path d="M196.90922,89.29077l29.78595,-29.91076l29.78597,29.91076l-29.78597,29.91076z" fill="#fe941e" fill-rule="evenodd"/><path d="M133.58273,114.86025l29.78595,-29.91076l29.78596,29.91076l-29.78596,29.91076z" fill="#ffff00" fill-rule="evenodd"/><path d="M256.48114,149.11229l29.78595,-29.91076l29.78595,29.91076l-29.78595,29.91077z" fill="#06bd00" fill-rule="evenodd"/><path d="M195.03193,171.12608l29.78597,-29.91075l29.78595,29.91075l-29.78594,29.91077z" fill="#001a98" fill-rule="evenodd"/><path d="M317.93033,204.20702l29.78594,-29.91076l29.78598,29.91076l-29.78598,29.91077z" fill="#760088" fill-rule="evenodd"/></g></g></svg>