<svg version="1.1" xmlns="http://www.w3.org/2000/svg" xmlns:xlink="http://www.w3.org/1999/xlink" width="720" height="540" viewBox="0,0,720,540"><defs><clipPath id="clip-1"><rect x="-240" y="-180" transform="scale(0.5,0.5)" width="1440" height="1080" fill="none" fill-rule="nonzero" stroke="none" stroke-width="0.5" stroke-linecap="butt" stroke-linejoin="miter"/></clipPath></defs><g transform="translate(120,90)"><g clip-path="url(#clip-1)" data-paper-data="{&quot;isPaintingLayer&quot;:true}" stroke-miterlimit="10" stroke-dasharray="" stroke-dashoffset="0" style="mix-blend-mode: normal"><path d="M0.24024,2.40071h481.02626v357.41911h-481.02626z" fill-opacity="0" fill="#000000" fill-rule="evenodd" stroke="none" stroke-width="1" stroke-linecap="square" stroke-linejoin="miter"/><path d="M475.30496,254.71265l-18.08674,6.37234v-12.74469zM462.17435,223.31342l-8.23874,17.17807l-9.09622,-9.01172zM430.48494,210.30888l6.43206,17.91877h-12.86415zM398.79135,223.31342l17.33912,8.16634l-9.09619,9.01172zM385.66489,254.71265l18.08674,-6.37235v12.74469zM398.79135,286.10776l8.24293,-17.17396l9.09619,9.01171zM430.48494,299.11643l-6.43209,-17.91877h12.86415zM462.17435,286.10776l-17.33496,-8.16225l9.09622,-9.01171zM408.07492,254.71265v0c0,-12.26177 10.03331,-22.20189 22.41002,-22.20189c12.37669,0 22.40999,9.94013 22.40999,22.20189c0,12.26175 -10.03331,22.20188 -22.40999,22.20188c-12.37672,0 -22.41002,-9.94013 -22.41002,-22.20188z" fill="#ffa300" fill-rule="evenodd" stroke="none" stroke-width="1" stroke-linecap="square" stroke-linejoin="miter"/><path d="M475.30496,254.71265l-18.08674,6.37234v-12.74469zM462.17435,223.31342l-8.23874,17.17807l-9.09622,-9.01172zM430.48494,210.30888l6.43206,17.91877h-12.86415zM398.79135,223.31342l17.33912,8.16634l-9.09619,9.01172zM385.66489,254.71265l18.08674,-6.37235v12.74469zM398.79135,286.10776l8.24293,-17.17396l9.09619,9.01171zM430.48494,299.11643l-6.43209,-17.91877h12.86415zM462.17435,286.10776l-17.33496,-8.16225l9.09622,-9.01171zM408.07492,254.71265v0c0,-12.26177 10.03331,-22.20189 22.41002,-22.20189c12.37669,0 22.40999,9.94013 22.40999,22.20189c0,12.26175 -10.03331,22.20188 -22.40999,22.20188c-12.37672,0 -22.41002,-9.94013 -22.41002,-22.20188z" fill="none" fill-rule="evenodd" stroke="#0000ff" stroke-width="1" stroke-linecap="butt" stroke-linejoin="round"/><path d="M0.2455,273.61457v0c0,-9.52179 7.79128,-17.24069 17.4023,-17.24069h446.22165c4.61538,0 9.04172,1.81643 12.30528,5.04967c3.26359,3.23328 5.09703,7.61851 5.09703,12.19102v68.96066c0,9.52176 -7.79128,17.24068 -17.4023,17.24068h-446.22165c-9.61103,0 -17.4023,-7.71892 -17.4023,-17.24068z" fill="#6cc12e" fill-rule="evenodd" stroke="none" stroke-width="1" stroke-linecap="square" stroke-linejoin="miter"/></g></g></svg>