<svg version="1.1" xmlns="http://www.w3.org/2000/svg" xmlns:xlink="http://www.w3.org/1999/xlink" width="720" height="540" viewBox="0,0,720,540"><defs><clipPath id="clip-1"><rect x="-240" y="-180" transform="scale(0.5,0.5)" width="1440" height="1080" fill="none" fill-rule="nonzero" stroke-width="0.5" stroke-linecap="butt"/></clipPath></defs><g transform="translate(120,90)"><g clip-path="url(#clip-1)" data-paper-data="{&quot;isPaintingLayer&quot;:true}" stroke="none" stroke-linejoin="miter" stroke-miterlimit="10" stroke-dasharray="" stroke-dashoffset="0" style="mix-blend-mode: normal"><path d="M-1.24521,1.5348h481.13339v357.80192h-481.13339z" fill-opacity="0" fill="#000000" fill-rule="evenodd" stroke-width="1" stroke-linecap="square"/><path d="M-1.24783,271.18699v0c0,-9.73654 7.96027,-17.62958 17.77978,-17.62958h445.57385c4.71548,0 9.23782,1.85739 12.57219,5.16359c3.33436,3.3062 5.20758,7.79033 5.20758,12.46599v70.51623c0,9.73654 -7.96028,17.62958 -17.77977,17.62958h-445.57385c-9.81949,0 -17.77978,-7.89304 -17.77978,-17.62958z" fill="#6cc12e" fill-rule="evenodd" stroke-width="1" stroke-linecap="square"/><path d="M468.88195,54.10293l-18.09077,6.37917v-12.75832zM455.74841,22.67008l-8.24057,17.19647l-9.09825,-9.02138zM424.05194,9.6516l6.43349,17.93796h-12.86701zM392.35129,22.67008l17.34298,8.1751l-9.09822,9.02138zM379.22192,54.10293l18.09077,-6.37917v12.75832zM392.35129,85.53167l8.24476,-17.19236l9.09822,9.02138zM424.05194,98.55426l-6.43352,-17.93796h12.86701zM455.74841,85.53167l-17.33882,-8.17099l9.09825,-9.02138zM401.63693,54.10293v0c0,-12.27489 10.03554,-22.22566 22.41501,-22.22566c12.37944,0 22.41498,9.95077 22.41498,22.22566c0,12.27489 -10.03554,22.22566 -22.41498,22.22566c-12.37947,0 -22.41501,-9.95077 -22.41501,-22.22566z" fill="#f9d17c" fill-rule="evenodd" stroke-width="1" stroke-linecap="square"/><path d="M175.44662,183.46065v0c0,-4.55131 3.721,-8.24088 8.31108,-8.24088h113.36909c2.20423,0 4.31819,0.86823 5.87682,2.4137c1.55863,1.54547 2.43426,3.64157 2.43426,5.82718v32.96252c0,4.55131 -3.72102,8.24088 -8.31108,8.24088h-113.36909v0c-4.59008,0 -8.31108,-3.68957 -8.31108,-8.24088z" fill="#6cc12e" fill-rule="evenodd" stroke-width="1" stroke-linecap="square"/><path d="M-110.76288,352.11764v-104.58609h109.8154v104.58609z" fill="#9966ff" fill-rule="nonzero" stroke-width="0" stroke-linecap="butt"/></g></g></svg>