<svg version="1.1" xmlns="http://www.w3.org/2000/svg" xmlns:xlink="http://www.w3.org/1999/xlink" width="720" height="540" viewBox="0,0,720,540"><defs><clipPath id="clip-1"><path d="M-120,450v-540h720v540z" fill="none" fill-rule="nonzero" stroke-linecap="butt"/></clipPath></defs><g transform="translate(120,90)"><g clip-path="url(#clip-1)" data-paper-data="{&quot;isPaintingLayer&quot;:true}" stroke="none" stroke-width="1" stroke-linejoin="miter" stroke-miterlimit="10" stroke-dasharray="" stroke-dashoffset="0" style="mix-blend-mode: normal"><path d="M0.24024,-7.32733h484.02402v370.58951h-484.02402z" fill-opacity="0" fill="#000000" fill-rule="evenodd" stroke-linecap="square"/><path d="M473.1919,47.11955l-18.19946,6.60715v-13.2143zM459.97945,14.56331l-8.29008,17.81106l-9.15291,-9.34379zM428.09256,1.07956l6.47214,18.57905h-12.94431zM396.20145,14.56331l17.44717,8.46727l-9.15288,9.34379zM382.99319,47.11955l18.19946,-6.60715v13.2143zM396.20145,79.67154l8.2943,-17.80681l9.15288,9.34379zM428.09256,93.15955l-6.47217,-18.57905h12.94431zM459.97945,79.67154l-17.44299,-8.46301l9.15291,-9.34379zM405.54287,47.11955v0c0,-12.71359 10.09584,-23.01999 22.54968,-23.01999c12.45382,0 22.54965,10.3064 22.54965,23.01999c0,12.71359 -10.09584,23.02 -22.54965,23.02c-12.45385,0 -22.54968,-10.30641 -22.54968,-23.02z" fill="#f9d17c" fill-rule="evenodd" stroke-linecap="square"/><path d="M-0.71927,272.16903c0,-9.74728 8.01876,-17.649 17.91041,-17.649v0l174.36439,-0.00088c0.00049,0 0.00089,0.0004 0.00089,0.00088v0l0.00089,105.89104c0,0.00048 -0.0004,0.00088 -0.00089,0.00088h-174.36528c-4.75014,0 -9.30572,-1.85945 -12.66457,-5.16929c-3.35885,-3.3098 -5.24584,-7.79892 -5.24584,-12.47971v0z" fill="#6cc12e" fill-rule="evenodd" stroke-linecap="square"/><path d="M480.43844,343.55667c0,9.83495 -8.17081,17.80774 -18.25004,17.80774v0l-188.64166,0.00089c-0.0005,0 -0.00091,-0.0004 -0.00091,-0.00089v0l-0.00091,-106.84345c0,-0.00049 0.00041,-0.00089 0.00091,-0.00089h188.64256c4.8402,0 9.48219,1.87617 12.9047,5.21575c3.42255,3.3396 5.34533,7.86909 5.34533,12.59199v0v71.22886z" fill="#6cc12e" fill-rule="evenodd" stroke-linecap="square"/></g></g></svg>