<svg version="1.1" xmlns="http://www.w3.org/2000/svg" xmlns:xlink="http://www.w3.org/1999/xlink" width="588.26011" height="360.34156" viewBox="0,0,588.26011,360.34156"><g transform="translate(110.76288,1.32132)"><g data-paper-data="{&quot;isPaintingLayer&quot;:true}" stroke="none" stroke-linejoin="miter" stroke-miterlimit="10" stroke-dasharray="" stroke-dashoffset="0" style="mix-blend-mode: normal"><path d="M-1.26389,-1.32132h478.76112v359.03817h-478.76112z" fill-opacity="0" fill="#000000" fill-rule="evenodd" stroke-width="1" stroke-linecap="square"/><path d="M-1.26651,269.48045v0c0,-9.89052 7.92103,-17.90838 17.69211,-17.90838h443.37691c4.69223,0 9.19228,1.88677 12.5102,5.24525c3.31792,3.35848 5.1819,7.91353 5.1819,12.66313v71.63141c0,9.89052 -7.92103,17.90838 -17.6921,17.90838h-443.37691c-9.77108,0 -17.69211,-8.01786 -17.69211,-17.90838z" fill="#6cc12e" fill-rule="evenodd" stroke-width="1" stroke-linecap="square"/><path d="M466.54525,51.42844l-18.00157,6.40121v-12.80241zM453.47647,19.88699l-8.19994,17.25589l-9.05339,-9.05255zM421.93629,6.82353l6.40177,17.99994h-12.80357zM390.39194,19.88699l17.25747,8.20334l-9.05335,9.05255zM377.3273,51.42844l18.00157,-6.4012v12.80241zM390.39194,82.96578l8.20411,-17.25177l9.05335,9.05255zM421.93629,96.03336l-6.4018,-17.99994h12.80357zM453.47647,82.96578l-17.25333,-8.19922l9.05339,-9.05255zM399.63179,51.42844v0c0,-12.31731 9.98606,-22.30246 22.3045,-22.30246c12.3184,0 22.30447,9.98515 22.30447,22.30246c0,12.31731 -9.98606,22.30246 -22.30447,22.30246c-12.31844,0 -22.3045,-9.98515 -22.3045,-22.30246z" fill="#f9d17c" fill-rule="evenodd" stroke-width="1" stroke-linecap="square"/><path d="M85.90424,186.46711v0c0,-4.56703 3.70265,-8.26935 8.2701,-8.26935h112.81011c2.19338,0 4.29691,0.87123 5.84784,2.42204c1.55095,1.55081 2.42226,3.65415 2.42226,5.84731v33.07642c0,4.56703 -3.70265,8.26935 -8.2701,8.26935h-112.81011v0c-4.56745,0 -8.2701,-3.70232 -8.2701,-8.26935z" fill="#6cc12e" fill-rule="evenodd" stroke-width="1" stroke-linecap="square"/><path d="M219.89217,136.852v0c0,-4.56703 3.70265,-8.26935 8.2701,-8.26935h112.81012c2.19336,0 4.29689,0.87123 5.84784,2.42204c1.55095,1.55081 2.42226,3.65415 2.42226,5.84731v33.07642c0,4.56703 -3.70267,8.26935 -8.2701,8.26935h-112.81012v0c-4.56745,0 -8.2701,-3.70232 -8.2701,-8.26935z" fill="#6cc12e" fill-rule="evenodd" stroke-width="1" stroke-linecap="square"/><path d="M292.54931,198.34671v0c0,-4.56703 3.70267,-8.26935 8.2701,-8.26935h112.81013c2.19336,0 4.29689,0.87123 5.84784,2.42202c1.55092,1.55081 2.42226,3.65415 2.42226,5.84733v33.07642c0,4.56703 -3.70267,8.26935 -8.2701,8.26935h-112.81013v0c-4.56743,0 -8.2701,-3.70232 -8.2701,-8.26935z" fill="#6cc12e" fill-rule="evenodd" stroke-width="1" stroke-linecap="square"/><path d="M-110.76288,352.11763v-104.58609h109.81539v104.58609z" fill="#9966ff" fill-rule="nonzero" stroke-width="0" stroke-linecap="butt"/></g></g></svg>