<svg version="1.1" xmlns="http://www.w3.org/2000/svg" xmlns:xlink="http://www.w3.org/1999/xlink" width="482.52774" height="346.12917" viewBox="0,0,482.52774,346.12917"><g transform="translate(2.75749,-15.18818)"><g data-paper-data="{&quot;isPaintingLayer&quot;:true}" fill-rule="evenodd" stroke="none" stroke-width="1" stroke-linecap="square" stroke-linejoin="miter" stroke-miterlimit="10" stroke-dasharray="" stroke-dashoffset="0" style="mix-blend-mode: normal"><path d="M-2.75749,273.67061v0c0,-9.68145 7.8156,-17.52978 17.45662,-17.52978h447.6145c4.62978,0 9.06994,1.84688 12.34368,5.13434c3.27377,3.28749 5.11294,7.74625 5.11294,12.39544v70.11697c0,9.68142 -7.8156,17.52977 -17.45662,17.52977h-447.6145c-9.64103,0 -17.45662,-7.84835 -17.45662,-17.52977z" fill="#000000"/><path d="M424.26559,58.64344c0,-17.09733 -8.01473,-33.19686 -21.63301,-43.45526v0c23.89516,0 43.26602,19.45558 43.26602,43.45526c0,23.99967 -19.37085,43.45526 -43.26602,43.45526v0c13.61828,-10.2584 21.63301,-26.35793 21.63301,-43.45526z" fill="#ffffff"/></g></g></svg>